# xmcd
#
# Track frame offsets:
#	150
#	11747
#	24196
#	25800
#	38985
#	53549
#	69376
#	82176
#	96173
#	110609
#	125221
#	138116
#	155943
#	173745
#	187508
#	188899
#	207989
#
# Disc length: 2999 seconds
#
# Revision: 2
# Processed by: cddbd v1.5.2PL0 Copyright (c) Steve Scherf et al.
# Submitted via: audiograbber 1.83.01
#
DISCID=e20bb511
DTITLE=Hillcrest - Hillcrest Pure Country 63
DYEAR=2012
DGENRE=
TTITLE0=Working Class Man -Vannatta
TTITLE1=Walking Papers -Shar Stephens
TTITLE2=McAdoo Perkins ID
TTITLE3=Haggard Had It Right -McAdoo Perkins 
TTITLE4=Every Sinner Every Saint -Steve Garner
TTITLE5=My Better Years -Belle Cannon
TTITLE6=What Was My Heart Thinking -Ross McGregor
TTITLE7=Somewhere Between -Conny Lee
TTITLE8=Leaving Nashville -Donna Lantz
TTITLE9=Still Have Beer Glen Albrect
TTITLE10=Looking On The Bright Side -Mary Resek
TTITLE11=You Are The Reason -Vicki Lee
TTITLE12=There´s a Place I Like to Go -Don Murock
TTITLE13=I´m Gonna Love You -Kathy Colerman
TTITLE14=Blake Emmons ID
TTITLE15=The Old Man on The Corner -Blake Emmons
TTITLE16=Harper Valley PTA -Tona Lomax
EXTD=
EXTT0=
EXTT1=
EXTT2=
EXTT3=
EXTT4=
EXTT5=
EXTT6=
EXTT7=
EXTT8=
EXTT9=
EXTT10=
EXTT11=
EXTT12=
EXTT13=
EXTT14=
EXTT15=
EXTT16=
PLAYORDER=
